<mxfile host="app.diagrams.net" modified="2020-10-09T04:07:29.880Z" agent="5.0 (Windows)" etag="f21rC4XoRdJkV9NdQbav" version="13.7.9" type="github">
  <diagram id="X1WS5M_EdqJg8nq4bNXl" name="Page-1">
    <mxGraphModel dx="868" dy="479" grid="1" gridSize="10" guides="1" tooltips="1" connect="1" arrows="1" fold="1" page="1" pageScale="1" pageWidth="1100" pageHeight="850" math="0" shadow="0">
      <root>
        <mxCell id="0" />
        <mxCell id="1" parent="0" />
        <mxCell id="noRcn-W63zeGpqcdknAx-15" style="edgeStyle=orthogonalEdgeStyle;rounded=0;orthogonalLoop=1;jettySize=auto;html=1;exitX=0;exitY=0.5;exitDx=0;exitDy=0;entryX=0.5;entryY=0;entryDx=0;entryDy=0;" edge="1" parent="1" source="noRcn-W63zeGpqcdknAx-1" target="noRcn-W63zeGpqcdknAx-3">
          <mxGeometry relative="1" as="geometry">
            <mxPoint x="160" y="80" as="targetPoint" />
          </mxGeometry>
        </mxCell>
        <mxCell id="noRcn-W63zeGpqcdknAx-1" value="" style="whiteSpace=wrap;html=1;aspect=fixed;fillColor=#6600CC;" vertex="1" parent="1">
          <mxGeometry x="320" y="40" width="80" height="80" as="geometry" />
        </mxCell>
        <mxCell id="noRcn-W63zeGpqcdknAx-3" value="" style="ellipse;whiteSpace=wrap;html=1;aspect=fixed;fillColor=#FCD22A;" vertex="1" parent="1">
          <mxGeometry x="120" y="120" width="80" height="80" as="geometry" />
        </mxCell>
        <mxCell id="noRcn-W63zeGpqcdknAx-22" style="edgeStyle=none;rounded=0;orthogonalLoop=1;jettySize=auto;html=1;exitX=0;exitY=1;exitDx=0;exitDy=0;entryX=1;entryY=0.5;entryDx=0;entryDy=0;" edge="1" parent="1" source="noRcn-W63zeGpqcdknAx-4" target="noRcn-W63zeGpqcdknAx-14">
          <mxGeometry relative="1" as="geometry" />
        </mxCell>
        <mxCell id="noRcn-W63zeGpqcdknAx-23" style="edgeStyle=none;rounded=0;orthogonalLoop=1;jettySize=auto;html=1;exitX=1;exitY=0.5;exitDx=0;exitDy=0;entryX=0;entryY=0.5;entryDx=0;entryDy=0;" edge="1" parent="1" source="noRcn-W63zeGpqcdknAx-4" target="noRcn-W63zeGpqcdknAx-5">
          <mxGeometry relative="1" as="geometry" />
        </mxCell>
        <mxCell id="noRcn-W63zeGpqcdknAx-4" value="" style="ellipse;whiteSpace=wrap;html=1;aspect=fixed;fillColor=#FCD22A;" vertex="1" parent="1">
          <mxGeometry x="400" y="200" width="80" height="80" as="geometry" />
        </mxCell>
        <mxCell id="noRcn-W63zeGpqcdknAx-24" style="edgeStyle=none;rounded=0;orthogonalLoop=1;jettySize=auto;html=1;exitX=0;exitY=1;exitDx=0;exitDy=0;entryX=1;entryY=0.5;entryDx=0;entryDy=0;" edge="1" parent="1" source="noRcn-W63zeGpqcdknAx-5" target="noRcn-W63zeGpqcdknAx-7">
          <mxGeometry relative="1" as="geometry" />
        </mxCell>
        <mxCell id="noRcn-W63zeGpqcdknAx-27" style="edgeStyle=orthogonalEdgeStyle;rounded=0;orthogonalLoop=1;jettySize=auto;html=1;exitX=1;exitY=0.5;exitDx=0;exitDy=0;entryX=1;entryY=0.5;entryDx=0;entryDy=0;" edge="1" parent="1" source="noRcn-W63zeGpqcdknAx-5" target="noRcn-W63zeGpqcdknAx-8">
          <mxGeometry relative="1" as="geometry" />
        </mxCell>
        <mxCell id="noRcn-W63zeGpqcdknAx-5" value="" style="whiteSpace=wrap;html=1;aspect=fixed;fillColor=#6600CC;" vertex="1" parent="1">
          <mxGeometry x="650" y="200" width="80" height="80" as="geometry" />
        </mxCell>
        <mxCell id="noRcn-W63zeGpqcdknAx-18" style="edgeStyle=none;rounded=0;orthogonalLoop=1;jettySize=auto;html=1;exitX=0.5;exitY=0;exitDx=0;exitDy=0;entryX=0.5;entryY=1;entryDx=0;entryDy=0;" edge="1" parent="1" source="noRcn-W63zeGpqcdknAx-6" target="noRcn-W63zeGpqcdknAx-3">
          <mxGeometry relative="1" as="geometry" />
        </mxCell>
        <mxCell id="noRcn-W63zeGpqcdknAx-19" style="edgeStyle=none;rounded=0;orthogonalLoop=1;jettySize=auto;html=1;exitX=1;exitY=0;exitDx=0;exitDy=0;entryX=0.238;entryY=0.925;entryDx=0;entryDy=0;entryPerimeter=0;" edge="1" parent="1" source="noRcn-W63zeGpqcdknAx-6" target="noRcn-W63zeGpqcdknAx-14">
          <mxGeometry relative="1" as="geometry" />
        </mxCell>
        <mxCell id="noRcn-W63zeGpqcdknAx-6" value="" style="whiteSpace=wrap;html=1;aspect=fixed;fillColor=#6600CC;" vertex="1" parent="1">
          <mxGeometry x="120" y="380" width="80" height="80" as="geometry" />
        </mxCell>
        <mxCell id="noRcn-W63zeGpqcdknAx-25" style="edgeStyle=none;rounded=0;orthogonalLoop=1;jettySize=auto;html=1;exitX=0.5;exitY=1;exitDx=0;exitDy=0;" edge="1" parent="1" source="noRcn-W63zeGpqcdknAx-7" target="noRcn-W63zeGpqcdknAx-8">
          <mxGeometry relative="1" as="geometry" />
        </mxCell>
        <mxCell id="noRcn-W63zeGpqcdknAx-7" value="" style="ellipse;whiteSpace=wrap;html=1;aspect=fixed;fillColor=#FCD22A;" vertex="1" parent="1">
          <mxGeometry x="400" y="380" width="80" height="80" as="geometry" />
        </mxCell>
        <mxCell id="noRcn-W63zeGpqcdknAx-28" style="edgeStyle=orthogonalEdgeStyle;rounded=0;orthogonalLoop=1;jettySize=auto;html=1;exitX=0.5;exitY=1;exitDx=0;exitDy=0;entryX=0.5;entryY=0;entryDx=0;entryDy=0;" edge="1" parent="1" source="noRcn-W63zeGpqcdknAx-8" target="noRcn-W63zeGpqcdknAx-9">
          <mxGeometry relative="1" as="geometry" />
        </mxCell>
        <mxCell id="noRcn-W63zeGpqcdknAx-8" value="" style="ellipse;whiteSpace=wrap;html=1;aspect=fixed;fillColor=#FCD22A;" vertex="1" parent="1">
          <mxGeometry x="400" y="550" width="80" height="80" as="geometry" />
        </mxCell>
        <mxCell id="noRcn-W63zeGpqcdknAx-30" style="edgeStyle=none;rounded=0;orthogonalLoop=1;jettySize=auto;html=1;exitX=1;exitY=0;exitDx=0;exitDy=0;entryX=0;entryY=0.25;entryDx=0;entryDy=0;" edge="1" parent="1" source="noRcn-W63zeGpqcdknAx-9" target="noRcn-W63zeGpqcdknAx-11">
          <mxGeometry relative="1" as="geometry" />
        </mxCell>
        <mxCell id="noRcn-W63zeGpqcdknAx-32" style="edgeStyle=none;rounded=0;orthogonalLoop=1;jettySize=auto;html=1;exitX=0;exitY=0.5;exitDx=0;exitDy=0;" edge="1" parent="1" source="noRcn-W63zeGpqcdknAx-9" target="noRcn-W63zeGpqcdknAx-13">
          <mxGeometry relative="1" as="geometry" />
        </mxCell>
        <mxCell id="noRcn-W63zeGpqcdknAx-33" style="edgeStyle=none;rounded=0;orthogonalLoop=1;jettySize=auto;html=1;exitX=0.5;exitY=1;exitDx=0;exitDy=0;entryX=0.5;entryY=0;entryDx=0;entryDy=0;" edge="1" parent="1" source="noRcn-W63zeGpqcdknAx-9" target="noRcn-W63zeGpqcdknAx-10">
          <mxGeometry relative="1" as="geometry" />
        </mxCell>
        <mxCell id="noRcn-W63zeGpqcdknAx-9" value="" style="ellipse;whiteSpace=wrap;html=1;aspect=fixed;fillColor=#FCD22A;" vertex="1" parent="1">
          <mxGeometry x="400" y="730" width="80" height="80" as="geometry" />
        </mxCell>
        <mxCell id="noRcn-W63zeGpqcdknAx-34" style="edgeStyle=none;rounded=0;orthogonalLoop=1;jettySize=auto;html=1;exitX=1;exitY=0.5;exitDx=0;exitDy=0;entryX=0;entryY=0.5;entryDx=0;entryDy=0;" edge="1" parent="1" source="noRcn-W63zeGpqcdknAx-10" target="noRcn-W63zeGpqcdknAx-12">
          <mxGeometry relative="1" as="geometry" />
        </mxCell>
        <mxCell id="noRcn-W63zeGpqcdknAx-10" value="" style="ellipse;whiteSpace=wrap;html=1;aspect=fixed;fillColor=#FCD22A;" vertex="1" parent="1">
          <mxGeometry x="400" y="910" width="80" height="80" as="geometry" />
        </mxCell>
        <mxCell id="noRcn-W63zeGpqcdknAx-31" style="edgeStyle=none;rounded=0;orthogonalLoop=1;jettySize=auto;html=1;exitX=0;exitY=0.5;exitDx=0;exitDy=0;entryX=1;entryY=0.5;entryDx=0;entryDy=0;" edge="1" parent="1" source="noRcn-W63zeGpqcdknAx-11" target="noRcn-W63zeGpqcdknAx-9">
          <mxGeometry relative="1" as="geometry" />
        </mxCell>
        <mxCell id="noRcn-W63zeGpqcdknAx-11" value="" style="whiteSpace=wrap;html=1;aspect=fixed;fillColor=#6600CC;" vertex="1" parent="1">
          <mxGeometry x="700" y="730" width="80" height="80" as="geometry" />
        </mxCell>
        <mxCell id="noRcn-W63zeGpqcdknAx-12" value="" style="whiteSpace=wrap;html=1;aspect=fixed;fillColor=#6600CC;" vertex="1" parent="1">
          <mxGeometry x="700" y="910" width="80" height="80" as="geometry" />
        </mxCell>
        <mxCell id="noRcn-W63zeGpqcdknAx-13" value="" style="whiteSpace=wrap;html=1;aspect=fixed;fillColor=#6600CC;" vertex="1" parent="1">
          <mxGeometry x="100" y="730" width="80" height="80" as="geometry" />
        </mxCell>
        <mxCell id="noRcn-W63zeGpqcdknAx-21" style="edgeStyle=none;rounded=0;orthogonalLoop=1;jettySize=auto;html=1;exitX=1;exitY=0;exitDx=0;exitDy=0;entryX=0;entryY=0.5;entryDx=0;entryDy=0;" edge="1" parent="1" source="noRcn-W63zeGpqcdknAx-14" target="noRcn-W63zeGpqcdknAx-4">
          <mxGeometry relative="1" as="geometry" />
        </mxCell>
        <mxCell id="noRcn-W63zeGpqcdknAx-39" style="edgeStyle=none;rounded=0;orthogonalLoop=1;jettySize=auto;html=1;exitX=0.5;exitY=1;exitDx=0;exitDy=0;entryX=1;entryY=0.5;entryDx=0;entryDy=0;fontColor=#FFFFFF;" edge="1" parent="1" source="noRcn-W63zeGpqcdknAx-14" target="noRcn-W63zeGpqcdknAx-6">
          <mxGeometry relative="1" as="geometry" />
        </mxCell>
        <mxCell id="noRcn-W63zeGpqcdknAx-14" value="" style="ellipse;whiteSpace=wrap;html=1;aspect=fixed;fillColor=#FCD22A;" vertex="1" parent="1">
          <mxGeometry x="220" y="250" width="80" height="80" as="geometry" />
        </mxCell>
        <mxCell id="noRcn-W63zeGpqcdknAx-35" value="Add product to cart" style="text;html=1;strokeColor=none;fillColor=none;align=center;verticalAlign=middle;whiteSpace=wrap;rounded=0;" vertex="1" parent="1">
          <mxGeometry x="420" y="230" width="40" height="20" as="geometry" />
        </mxCell>
        <mxCell id="noRcn-W63zeGpqcdknAx-36" value="Administrator" style="text;html=1;align=center;verticalAlign=middle;whiteSpace=wrap;rounded=0;fontColor=#FFFFFF;" vertex="1" parent="1">
          <mxGeometry x="340" y="70" width="40" height="20" as="geometry" />
        </mxCell>
        <mxCell id="noRcn-W63zeGpqcdknAx-37" value="Customer" style="text;html=1;strokeColor=none;fillColor=none;align=center;verticalAlign=middle;whiteSpace=wrap;rounded=0;fontColor=#FFFFFF;" vertex="1" parent="1">
          <mxGeometry x="140" y="410" width="40" height="20" as="geometry" />
        </mxCell>
        <mxCell id="noRcn-W63zeGpqcdknAx-38" value="Shopping cart" style="text;html=1;strokeColor=none;fillColor=none;align=center;verticalAlign=middle;whiteSpace=wrap;rounded=0;fontColor=#FFFFFF;" vertex="1" parent="1">
          <mxGeometry x="670" y="230" width="40" height="20" as="geometry" />
        </mxCell>
        <mxCell id="noRcn-W63zeGpqcdknAx-40" value="Cradit card company" style="text;html=1;strokeColor=none;fillColor=none;align=center;verticalAlign=middle;whiteSpace=wrap;rounded=0;fontColor=#FFFFFF;" vertex="1" parent="1">
          <mxGeometry x="720" y="760" width="40" height="20" as="geometry" />
        </mxCell>
        <mxCell id="noRcn-W63zeGpqcdknAx-41" value="Shipping agent" style="text;html=1;strokeColor=none;fillColor=none;align=center;verticalAlign=middle;whiteSpace=wrap;rounded=0;fontColor=#FFFFFF;" vertex="1" parent="1">
          <mxGeometry x="720" y="940" width="40" height="20" as="geometry" />
        </mxCell>
        <mxCell id="noRcn-W63zeGpqcdknAx-42" value="Administrator" style="text;html=1;strokeColor=none;fillColor=none;align=center;verticalAlign=middle;whiteSpace=wrap;rounded=0;fontColor=#FFFFFF;" vertex="1" parent="1">
          <mxGeometry x="120" y="760" width="40" height="20" as="geometry" />
        </mxCell>
        <mxCell id="noRcn-W63zeGpqcdknAx-43" value="&lt;div&gt;issue order to shipping &lt;br&gt;&lt;/div&gt;&lt;div&gt;again&lt;br&gt;&lt;/div&gt;" style="text;html=1;strokeColor=none;fillColor=none;align=center;verticalAlign=middle;whiteSpace=wrap;rounded=0;fontColor=#121212;" vertex="1" parent="1">
          <mxGeometry x="420" y="940" width="40" height="20" as="geometry" />
        </mxCell>
        <mxCell id="noRcn-W63zeGpqcdknAx-44" value="Payment gateway" style="text;html=1;strokeColor=none;fillColor=none;align=center;verticalAlign=middle;whiteSpace=wrap;rounded=0;fontColor=#121212;" vertex="1" parent="1">
          <mxGeometry x="420" y="760" width="40" height="20" as="geometry" />
        </mxCell>
        <mxCell id="noRcn-W63zeGpqcdknAx-45" value="Checkout" style="text;html=1;strokeColor=none;fillColor=none;align=center;verticalAlign=middle;whiteSpace=wrap;rounded=0;fontColor=#121212;" vertex="1" parent="1">
          <mxGeometry x="420" y="580" width="40" height="20" as="geometry" />
        </mxCell>
        <mxCell id="noRcn-W63zeGpqcdknAx-46" value="View/edit cart" style="text;html=1;strokeColor=none;fillColor=none;align=center;verticalAlign=middle;whiteSpace=wrap;rounded=0;fontColor=#121212;" vertex="1" parent="1">
          <mxGeometry x="420" y="415" width="40" height="20" as="geometry" />
        </mxCell>
        <mxCell id="noRcn-W63zeGpqcdknAx-47" value="Product design" style="text;html=1;strokeColor=none;fillColor=none;align=center;verticalAlign=middle;whiteSpace=wrap;rounded=0;fontColor=#121212;" vertex="1" parent="1">
          <mxGeometry x="240" y="280" width="40" height="20" as="geometry" />
        </mxCell>
        <mxCell id="noRcn-W63zeGpqcdknAx-48" value="Catalogue" style="text;html=1;strokeColor=none;fillColor=none;align=center;verticalAlign=middle;whiteSpace=wrap;rounded=0;fontColor=#121212;" vertex="1" parent="1">
          <mxGeometry x="140" y="150" width="40" height="20" as="geometry" />
        </mxCell>
        <mxCell id="noRcn-W63zeGpqcdknAx-49" value="&lt;div&gt;change/update &lt;br&gt;&lt;/div&gt;&lt;div&gt;catalogue&lt;br&gt;&lt;/div&gt;" style="text;html=1;strokeColor=none;fillColor=none;align=center;verticalAlign=middle;whiteSpace=wrap;rounded=0;fontColor=#121212;" vertex="1" parent="1">
          <mxGeometry x="200" y="40" width="40" height="20" as="geometry" />
        </mxCell>
        <mxCell id="noRcn-W63zeGpqcdknAx-50" value="Browse" style="text;html=1;strokeColor=none;fillColor=none;align=center;verticalAlign=middle;whiteSpace=wrap;rounded=0;fontColor=#121212;" vertex="1" parent="1">
          <mxGeometry x="100" y="280" width="40" height="20" as="geometry" />
        </mxCell>
        <mxCell id="noRcn-W63zeGpqcdknAx-51" value="design" style="text;html=1;strokeColor=none;fillColor=none;align=center;verticalAlign=middle;whiteSpace=wrap;rounded=0;fontColor=#121212;" vertex="1" parent="1">
          <mxGeometry x="170" y="330" width="40" height="20" as="geometry" />
        </mxCell>
        <mxCell id="noRcn-W63zeGpqcdknAx-52" value="design view" style="text;html=1;strokeColor=none;fillColor=none;align=center;verticalAlign=middle;whiteSpace=wrap;rounded=0;fontColor=#121212;" vertex="1" parent="1">
          <mxGeometry x="240" y="380" width="40" height="20" as="geometry" />
        </mxCell>
        <mxCell id="noRcn-W63zeGpqcdknAx-53" value="Confirmation" style="text;html=1;strokeColor=none;fillColor=none;align=center;verticalAlign=middle;whiteSpace=wrap;rounded=0;fontColor=#121212;" vertex="1" parent="1">
          <mxGeometry x="310" y="210" width="40" height="20" as="geometry" />
        </mxCell>
        <mxCell id="noRcn-W63zeGpqcdknAx-54" value="Quantity" style="text;html=1;strokeColor=none;fillColor=none;align=center;verticalAlign=middle;whiteSpace=wrap;rounded=0;fontColor=#121212;" vertex="1" parent="1">
          <mxGeometry x="340" y="300" width="40" height="20" as="geometry" />
        </mxCell>
        <mxCell id="noRcn-W63zeGpqcdknAx-55" value="Cart item" style="text;html=1;strokeColor=none;fillColor=none;align=center;verticalAlign=middle;whiteSpace=wrap;rounded=0;fontColor=#121212;" vertex="1" parent="1">
          <mxGeometry x="540" y="190" width="40" height="20" as="geometry" />
        </mxCell>
        <mxCell id="noRcn-W63zeGpqcdknAx-56" value="Cart items" style="text;html=1;strokeColor=none;fillColor=none;align=center;verticalAlign=middle;whiteSpace=wrap;rounded=0;fontColor=#121212;" vertex="1" parent="1">
          <mxGeometry x="530" y="310" width="40" height="20" as="geometry" />
        </mxCell>
        <mxCell id="noRcn-W63zeGpqcdknAx-57" value="Item details" style="text;html=1;strokeColor=none;fillColor=none;align=center;verticalAlign=middle;whiteSpace=wrap;rounded=0;fontColor=#121212;" vertex="1" parent="1">
          <mxGeometry x="460" y="490" width="40" height="20" as="geometry" />
        </mxCell>
        <mxCell id="noRcn-W63zeGpqcdknAx-58" value="Item details" style="text;html=1;align=center;verticalAlign=middle;resizable=0;points=[];autosize=1;fontColor=#121212;" vertex="1" parent="1">
          <mxGeometry x="580" y="560" width="80" height="20" as="geometry" />
        </mxCell>
        <mxCell id="noRcn-W63zeGpqcdknAx-59" value="Order / Billing information" style="text;html=1;strokeColor=none;fillColor=none;align=center;verticalAlign=middle;whiteSpace=wrap;rounded=0;fontColor=#121212;" vertex="1" parent="1">
          <mxGeometry x="270" y="730" width="40" height="20" as="geometry" />
        </mxCell>
        <mxCell id="noRcn-W63zeGpqcdknAx-60" value="Credit card" style="text;html=1;strokeColor=none;fillColor=none;align=center;verticalAlign=middle;whiteSpace=wrap;rounded=0;fontColor=#121212;" vertex="1" parent="1">
          <mxGeometry x="560" y="710" width="40" height="20" as="geometry" />
        </mxCell>
        <mxCell id="noRcn-W63zeGpqcdknAx-61" value="Credit card status" style="text;html=1;strokeColor=none;fillColor=none;align=center;verticalAlign=middle;whiteSpace=wrap;rounded=0;fontColor=#121212;" vertex="1" parent="1">
          <mxGeometry x="570" y="790" width="40" height="20" as="geometry" />
        </mxCell>
        <mxCell id="noRcn-W63zeGpqcdknAx-62" value="Shipping request" style="text;html=1;strokeColor=none;fillColor=none;align=center;verticalAlign=middle;whiteSpace=wrap;rounded=0;fontColor=#121212;" vertex="1" parent="1">
          <mxGeometry x="570" y="920" width="40" height="20" as="geometry" />
        </mxCell>
      </root>
    </mxGraphModel>
  </diagram>
</mxfile>
